<?xml version="1.0" encoding="UTF-8" standalone="no"?>
<!-- Created with Inkscape (http://www.inkscape.org/) -->

<svg
   xmlns:dc="http://purl.org/dc/elements/1.1/"
   xmlns:cc="http://creativecommons.org/ns#"
   xmlns:rdf="http://www.w3.org/1999/02/22-rdf-syntax-ns#"
   xmlns:svg="http://www.w3.org/2000/svg"
   xmlns="http://www.w3.org/2000/svg"
   xmlns:sodipodi="http://sodipodi.sourceforge.net/DTD/sodipodi-0.dtd"
   xmlns:inkscape="http://www.inkscape.org/namespaces/inkscape"
   id="svg3786"
   sodipodi:docname="trafficjam.svg"
   viewBox="0 0 412.2 150"
   version="1.1"
   inkscape:version="0.91 r13725"
   width="412.20001"
   height="150">
  <defs
     id="defs180599" />
  <sodipodi:namedview
     id="base"
     bordercolor="#666666"
     inkscape:pageshadow="2"
     inkscape:window-y="1"
     fit-margin-left="0"
     pagecolor="#ffffff"
     inkscape:window-height="1035"
     inkscape:window-maximized="1"
     inkscape:zoom="1.6672882"
     inkscape:window-x="4"
     showgrid="false"
     borderopacity="1.0"
     inkscape:current-layer="g4365"
     inkscape:cx="200.50006"
     inkscape:cy="133.21797"
     fit-margin-top="0"
     fit-margin-right="0"
     fit-margin-bottom="0"
     inkscape:window-width="1916"
     inkscape:pageopacity="0.0"
     inkscape:document-units="px" />
  <g
     id="layer1"
     inkscape:label="Layer 1"
     inkscape:groupmode="layer"
     transform="translate(-51.524,-380.87)">
    <g
       id="g4365">
      <g
         id="g181353">
        <path
           inkscape:connector-curvature="0"
           style="fill:#999999"
           sodipodi:nodetypes="ccccc"
           d="m 249.33,395.61 13.034,0 201.36,135.26 -412.2,-0.15887 z"
           id="path3796" />
        <path
           inkscape:connector-curvature="0"
           style="fill:#e1e16a;fill-opacity:1"
           sodipodi:nodetypes="ccccc"
           d="m 240.19,526.52 4.024,-37.98 12.126,0 -0.10237,37.98 z"
           id="path4325" />
        <path
           inkscape:connector-curvature="0"
           style="fill:#e1e16a;fill-opacity:1"
           d="m 246.98,466.73 9.2925,0 0,-19.205 -7.021,0 z"
           id="path4331" />
        <path
           inkscape:connector-curvature="0"
           style="fill:#e1e16a;fill-opacity:1"
           sodipodi:nodetypes="ccccc"
           d="m 250.69,438.64 5.782,0 0,-9.912 -4.7495,0 z"
           id="path4333" />
        <path
           inkscape:connector-curvature="0"
           style="fill:#e1e16a;fill-opacity:1"
           sodipodi:nodetypes="ccccc"
           d="m 252.55,423.01 3.9526,0.11826 -0.0291,-5.5464 -3.3331,0.0591 z"
           id="path4335" />
        <path
           inkscape:connector-curvature="0"
           style="fill:#e1e16a;fill-opacity:1"
           d="m 253.38,414.63 3.134,0 0.0591,-3.1931 -2.72,0 z"
           id="path4337" />
        <path
           inkscape:connector-curvature="0"
           style="fill:#e1e16a;fill-opacity:1"
           sodipodi:nodetypes="ccccc"
           d="m 254.11,409.52 2.4072,0.0254 0,-2.0696 -2.1879,0 z"
           id="path4339" />
        <path
           inkscape:connector-curvature="0"
           style="fill:#e1e16a;fill-opacity:1"
           d="m 254.47,406.33 2.0354,0 -0.0254,-1.4248 -1.8573,0 z"
           id="path4341" />
        <path
           inkscape:connector-curvature="0"
           style="fill:#e1e16a;fill-opacity:1"
           d="m 254.78,403.94 1.7046,0 0.0254,-0.99225 -1.6283,0 z"
           id="path4343" />
        <path
           inkscape:connector-curvature="0"
           style="fill:#e1e16a;fill-opacity:1"
           d="m 254.96,402.25 1.5474,0 0,-0.83711 -1.4586,0 z"
           id="path4345" />
        <path
           inkscape:connector-curvature="0"
           style="fill:#e1e16a;fill-opacity:1"
           d="m 255.1,400.94 1.3952,0 -0.0127,-0.65953 -1.2937,0 z"
           id="path4347" />
        <path
           inkscape:connector-curvature="0"
           style="fill:#e1e16a;fill-opacity:1"
           d="m 255.25,399.93 1.2683,0 -0.0127,-0.55807 -1.1922,0 z"
           id="path4349" />
        <path
           inkscape:connector-curvature="0"
           style="fill:#e1e16a;fill-opacity:1"
           d="m 255.36,399.1 1.1288,0 0.0127,-0.46929 -1.1035,0 z"
           id="path4351" />
        <path
           inkscape:connector-curvature="0"
           style="fill:#e1e16a;fill-opacity:1"
           sodipodi:nodetypes="ccccc"
           d="m 255.46,398.37 1.0147,0 0,-0.35514 -1.002,0 z"
           id="path4353" />
        <path
           inkscape:connector-curvature="0"
           style="fill:#e1e16a;fill-opacity:1"
           d="m 255.51,397.8 0.98918,0 -0.009,-0.31811 -0.93689,0 z"
           id="path4355" />
        <path
           inkscape:connector-curvature="0"
           style="fill:#e1e16a;fill-opacity:1"
           d="m 255.57,397.33 0.90639,0 0,-0.20916 -0.87153,0 z"
           id="path4357" />
        <path
           inkscape:connector-curvature="0"
           style="fill:#e1e16a;fill-opacity:1"
           d="m 255.63,396.99 0.82359,0 0,-0.15252 -0.79308,0 z"
           id="path4359" />
        <path
           inkscape:connector-curvature="0"
           style="fill:#e1e16a;fill-opacity:1"
           d="m 255.67,396.72 0.78001,0 0.004,-0.10894 -0.77566,0 z"
           id="path4361" />
        <path
           inkscape:connector-curvature="0"
           style="fill:#e1e16a;fill-opacity:1"
           d="m 255.69,396.52 0.75387,0 0.004,-0.10458 -0.74515,0 z"
           id="path4363" />
        <g
           transform="matrix(0.08457805,0,0,0.09492759,220.42271,386.93385)"
           id="g181217">
          <path
             style="fill:#dc8526;fill-opacity:1;stroke:#000000;stroke-width:11.16027641;stroke-miterlimit:4;stroke-dasharray:none;stroke-opacity:1"
             inkscape:connector-curvature="0"
             id="path2072"
             d="m 194.03,257.89 -104.79,0 0,33.069 c 0,40.257 -58.238,40.736 -58.238,0 l 0,-33.069 -30.997,0 0,-103.56 c 0,-27.796 22.358,-42.485 34.984,-44.088 L 66.858,28.844 c 6,-15.5 19,-28.748 43.5,-28.748 160.97,-0.21406 6.8301,0.0039 167.25,0 24.5,0 37.5,13.248 43.5,28.748 l 31.874,81.397 c 12.626,1.603 35.007,16.292 35.007,44.088 l 0,103.56 -30.997,0 0,33.069 c 0,40.736 -58.238,40.257 -58.238,0 l 0,-33.069 -104.79,0 z" />
          <g
             style="fill:#ffffff"
             id="g2074"
             transform="translate(0,-33.974)">
            <path
               inkscape:connector-curvature="0"
               id="path2076"
               d="m 193.96,142.3 -125.98,0 23.998,-62.98 c 3,-9 7.502,-15.5 18.002,-15.597 l 168,0 c 10.5,0.097 15,6.597 18,15.597 l 23.998,62.98 -126.02,0 z" />
            <g
               id="g2078">
              <g
                 id="g2080">
                <path
                   inkscape:connector-curvature="0"
                   id="path2082"
                   d="m 61.043,228.55 c -14.856,0 -26.901,-12.291 -26.901,-27.45 0,-15.159 12.045,-27.449 26.901,-27.449 14.856,0 26.9,12.29 26.9,27.449 0,15.159 -12.044,27.45 -26.9,27.45 z" />
              </g>
              <g
                 id="g2086">
                <path
                   inkscape:connector-curvature="0"
                   id="path2088"
                   d="m 326.93,228.55 c 14.856,0 26.9,-12.291 26.9,-27.45 0,-15.159 -12.044,-27.449 -26.9,-27.449 -14.856,0 -26.901,12.29 -26.901,27.449 0,15.159 12.045,27.45 26.901,27.45 z" />
              </g>
            </g>
          </g>
        </g>
        <g
           id="g181227"
           transform="matrix(0.08457805,0,0,0.09492759,257.7412,386.29043)">
          <path
             style="fill:#946291;fill-opacity:1;stroke:#000000;stroke-width:11.16027641;stroke-miterlimit:4;stroke-dasharray:none;stroke-opacity:1"
             d="m 194.03,257.89 -104.79,0 0,33.069 c 0,40.257 -58.238,40.736 -58.238,0 l 0,-33.069 -30.997,0 0,-103.56 c 0,-27.796 22.358,-42.485 34.984,-44.088 L 66.858,28.844 c 6,-15.5 19,-28.748 43.5,-28.748 160.97,-0.21406 6.8301,0.0039 167.25,0 24.5,0 37.5,13.248 43.5,28.748 l 31.874,81.397 c 12.626,1.603 35.007,16.292 35.007,44.088 l 0,103.56 -30.997,0 0,33.069 c 0,40.736 -58.238,40.257 -58.238,0 l 0,-33.069 -104.79,0 z"
             id="path181229"
             inkscape:connector-curvature="0" />
          <g
             transform="translate(0,-33.974)"
             id="g181231"
             style="fill:#ffffff">
            <path
               d="m 193.96,142.3 -125.98,0 23.998,-62.98 c 3,-9 7.502,-15.5 18.002,-15.597 l 168,0 c 10.5,0.097 15,6.597 18,15.597 l 23.998,62.98 -126.02,0 z"
               id="path181233"
               inkscape:connector-curvature="0" />
            <g
               id="g181235">
              <g
                 id="g181237">
                <path
                   d="m 61.043,228.55 c -14.856,0 -26.901,-12.291 -26.901,-27.45 0,-15.159 12.045,-27.449 26.901,-27.449 14.856,0 26.9,12.29 26.9,27.449 0,15.159 -12.044,27.45 -26.9,27.45 z"
                   id="path181239"
                   inkscape:connector-curvature="0" />
              </g>
              <g
                 id="g181241">
                <path
                   d="m 326.93,228.55 c 14.856,0 26.9,-12.291 26.9,-27.45 0,-15.159 -12.044,-27.449 -26.9,-27.449 -14.856,0 -26.901,12.29 -26.901,27.449 0,15.159 12.045,27.45 26.901,27.45 z"
                   id="path181243"
                   inkscape:connector-curvature="0" />
              </g>
            </g>
          </g>
        </g>
        <g
           transform="matrix(0.13598762,0,0,0.15900351,260.95806,397.87192)"
           id="g181245">
          <path
             style="fill:#755532;fill-opacity:1;stroke:#000000;stroke-width:8.1607151;stroke-miterlimit:4;stroke-dasharray:none;stroke-opacity:1"
             inkscape:connector-curvature="0"
             id="path181247"
             d="m 194.03,257.89 -104.79,0 0,33.069 c 0,40.257 -58.238,40.736 -58.238,0 l 0,-33.069 -30.997,0 0,-103.56 c 0,-27.796 22.358,-42.485 34.984,-44.088 L 66.858,28.844 c 6,-15.5 19,-28.748 43.5,-28.748 160.97,-0.21406 6.8301,0.0039 167.25,0 24.5,0 37.5,13.248 43.5,28.748 l 31.874,81.397 c 12.626,1.603 35.007,16.292 35.007,44.088 l 0,103.56 -30.997,0 0,33.069 c 0,40.736 -58.238,40.257 -58.238,0 l 0,-33.069 -104.79,0 z" />
          <g
             style="fill:#ffffff"
             id="g181249"
             transform="translate(0,-33.974)">
            <path
               inkscape:connector-curvature="0"
               id="path181251"
               d="m 193.96,142.3 -125.98,0 23.998,-62.98 c 3,-9 7.502,-15.5 18.002,-15.597 l 168,0 c 10.5,0.097 15,6.597 18,15.597 l 23.998,62.98 -126.02,0 z" />
            <g
               id="g181253">
              <g
                 id="g181255">
                <path
                   inkscape:connector-curvature="0"
                   id="path181257"
                   d="m 61.043,228.55 c -14.856,0 -26.901,-12.291 -26.901,-27.45 0,-15.159 12.045,-27.449 26.901,-27.449 14.856,0 26.9,12.29 26.9,27.449 0,15.159 -12.044,27.45 -26.9,27.45 z" />
              </g>
              <g
                 id="g181259">
                <path
                   inkscape:connector-curvature="0"
                   id="path181261"
                   d="m 326.93,228.55 c 14.856,0 26.9,-12.291 26.9,-27.45 0,-15.159 -12.044,-27.449 -26.9,-27.449 -14.856,0 -26.901,12.29 -26.901,27.449 0,15.159 12.045,27.45 26.901,27.45 z" />
              </g>
            </g>
          </g>
        </g>
        <g
           style="stroke:#000000;stroke-width:8.1607151;stroke-miterlimit:4;stroke-dasharray:none;stroke-opacity:1"
           id="g181263"
           transform="matrix(0.13598762,0,0,0.15900351,188.89477,396.58508)">
          <path
             style="fill:#9b8eae;fill-opacity:1;stroke:#000000;stroke-width:8.1607151;stroke-miterlimit:4;stroke-dasharray:none;stroke-opacity:1"
             d="m 194.03,257.89 -104.79,0 0,33.069 c 0,40.257 -58.238,40.736 -58.238,0 l 0,-33.069 -30.997,0 0,-103.56 c 0,-27.796 22.358,-42.485 34.984,-44.088 L 66.858,28.844 c 6,-15.5 19,-28.748 43.5,-28.748 160.97,-0.21406 6.8301,0.0039 167.25,0 24.5,0 37.5,13.248 43.5,28.748 l 31.874,81.397 c 12.626,1.603 35.007,16.292 35.007,44.088 l 0,103.56 -30.997,0 0,33.069 c 0,40.736 -58.238,40.257 -58.238,0 l 0,-33.069 -104.79,0 z"
             id="path181265"
             inkscape:connector-curvature="0" />
          <g
             transform="translate(0,-33.974)"
             id="g181267"
             style="fill:#ffffff;stroke:#000000;stroke-width:8.1607151;stroke-miterlimit:4;stroke-dasharray:none;stroke-opacity:1">
            <path
               style="stroke:none;stroke-width:8.1607151;stroke-miterlimit:4;stroke-dasharray:none;stroke-opacity:1"
               d="m 193.96,142.3 -125.98,0 23.998,-62.98 c 3,-9 7.502,-15.5 18.002,-15.597 l 168,0 c 10.5,0.097 15,6.597 18,15.597 l 23.998,62.98 -126.02,0 z"
               id="path181269"
               inkscape:connector-curvature="0" />
            <g
               style="stroke:#000000;stroke-width:8.1607151;stroke-miterlimit:4;stroke-dasharray:none;stroke-opacity:1"
               id="g181271">
              <g
                 style="stroke:#000000;stroke-width:8.1607151;stroke-miterlimit:4;stroke-dasharray:none;stroke-opacity:1"
                 id="g181273">
                <path
                   style="stroke:#000000;stroke-width:8.1607151;stroke-miterlimit:4;stroke-dasharray:none;stroke-opacity:1"
                   d="m 61.043,228.55 c -14.856,0 -26.901,-12.291 -26.901,-27.45 0,-15.159 12.045,-27.449 26.901,-27.449 14.856,0 26.9,12.29 26.9,27.449 0,15.159 -12.044,27.45 -26.9,27.45 z"
                   id="path181275"
                   inkscape:connector-curvature="0" />
              </g>
              <g
                 style="stroke:#000000;stroke-width:8.1607151;stroke-miterlimit:4;stroke-dasharray:none;stroke-opacity:1"
                 id="g181277">
                <path
                   style="stroke:none;stroke-width:8.1607151;stroke-miterlimit:4;stroke-dasharray:none;stroke-opacity:1"
                   d="m 326.93,228.55 c 14.856,0 26.9,-12.291 26.9,-27.45 0,-15.159 -12.044,-27.449 -26.9,-27.449 -14.856,0 -26.901,12.29 -26.901,27.449 0,15.159 12.045,27.45 26.901,27.45 z"
                   id="path181279"
                   inkscape:connector-curvature="0" />
              </g>
            </g>
          </g>
        </g>
        <g
           transform="matrix(0.22388139,0,0,0.24110079,146.42847,415.88761)"
           id="g181281">
          <path
             style="fill:#4c476c;fill-opacity:1;stroke:#000000;stroke-width:8.60838509;stroke-miterlimit:4;stroke-dasharray:none;stroke-opacity:1"
             inkscape:connector-curvature="0"
             id="path181283"
             d="m 194.03,257.89 -104.79,0 0,33.069 c 0,40.257 -58.238,40.736 -58.238,0 l 0,-33.069 -30.997,0 0,-103.56 c 0,-27.796 22.358,-42.485 34.984,-44.088 L 66.858,28.844 c 6,-15.5 19,-28.748 43.5,-28.748 160.97,-0.21406 6.8301,0.0039 167.25,0 24.5,0 37.5,13.248 43.5,28.748 l 31.874,81.397 c 12.626,1.603 35.007,16.292 35.007,44.088 l 0,103.56 -30.997,0 0,33.069 c 0,40.736 -58.238,40.257 -58.238,0 l 0,-33.069 -104.79,0 z" />
          <g
             style="fill:#ffffff"
             id="g181285"
             transform="translate(0,-33.974)">
            <path
               inkscape:connector-curvature="0"
               id="path181287"
               d="m 193.96,142.3 -125.98,0 23.998,-62.98 c 3,-9 7.502,-15.5 18.002,-15.597 l 168,0 c 10.5,0.097 15,6.597 18,15.597 l 23.998,62.98 -126.02,0 z" />
            <g
               id="g181289">
              <g
                 id="g181291">
                <path
                   inkscape:connector-curvature="0"
                   id="path181293"
                   d="m 61.043,228.55 c -14.856,0 -26.901,-12.291 -26.901,-27.45 0,-15.159 12.045,-27.449 26.901,-27.449 14.856,0 26.9,12.29 26.9,27.449 0,15.159 -12.044,27.45 -26.9,27.45 z" />
              </g>
              <g
                 id="g181295">
                <path
                   inkscape:connector-curvature="0"
                   id="path181297"
                   d="m 326.93,228.55 c 14.856,0 26.9,-12.291 26.9,-27.45 0,-15.159 -12.044,-27.449 -26.9,-27.449 -14.856,0 -26.901,12.29 -26.901,27.449 0,15.159 12.045,27.45 26.901,27.45 z" />
              </g>
            </g>
          </g>
        </g>
        <g
           id="g181299"
           transform="matrix(0.22388139,0,0,0.23709605,268.03527,416.53103)">
          <path
             style="fill:#58b6b3;fill-opacity:1;stroke:#000000;stroke-width:8.68078136;stroke-miterlimit:4;stroke-dasharray:none;stroke-opacity:1"
             d="m 194.03,257.89 -104.79,0 0,33.069 c 0,40.257 -58.238,40.736 -58.238,0 l 0,-33.069 -30.997,0 0,-103.56 c 0,-27.796 22.358,-42.485 34.984,-44.088 L 66.858,28.844 c 6,-15.5 19,-28.748 43.5,-28.748 160.97,-0.21406 6.8301,0.0039 167.25,0 24.5,0 37.5,13.248 43.5,28.748 l 31.874,81.397 c 12.626,1.603 35.007,16.292 35.007,44.088 l 0,103.56 -30.997,0 0,33.069 c 0,40.736 -58.238,40.257 -58.238,0 l 0,-33.069 -104.79,0 z"
             id="path181301"
             inkscape:connector-curvature="0" />
          <g
             transform="translate(0,-33.974)"
             id="g181303"
             style="fill:#ffffff">
            <path
               d="m 193.96,142.3 -125.98,0 23.998,-62.98 c 3,-9 7.502,-15.5 18.002,-15.597 l 168,0 c 10.5,0.097 15,6.597 18,15.597 l 23.998,62.98 -126.02,0 z"
               id="path181305"
               inkscape:connector-curvature="0" />
            <g
               id="g181307">
              <g
                 id="g181309">
                <path
                   d="m 61.043,228.55 c -14.856,0 -26.901,-12.291 -26.901,-27.45 0,-15.159 12.045,-27.449 26.901,-27.449 14.856,0 26.9,12.29 26.9,27.449 0,15.159 -12.044,27.45 -26.9,27.45 z"
                   id="path181311"
                   inkscape:connector-curvature="0" />
              </g>
              <g
                 id="g181313">
                <path
                   d="m 326.93,228.55 c 14.856,0 26.9,-12.291 26.9,-27.45 0,-15.159 -12.044,-27.449 -26.9,-27.449 -14.856,0 -26.901,12.29 -26.901,27.449 0,15.159 12.045,27.45 26.901,27.45 z"
                   id="path181315"
                   inkscape:connector-curvature="0" />
              </g>
            </g>
          </g>
        </g>
        <g
           transform="matrix(0.26534072,0,0,0.28915774,299.56275,433.90333)"
           id="g181317">
          <path
             style="fill:#6e9b75;fill-opacity:1;stroke:#000000;stroke-width:7.22038984;stroke-miterlimit:4;stroke-dasharray:none;stroke-opacity:1"
             inkscape:connector-curvature="0"
             id="path181319"
             d="m 194.03,257.89 -104.79,0 0,33.069 c 0,40.257 -58.238,40.736 -58.238,0 l 0,-33.069 -30.997,0 0,-103.56 c 0,-27.796 22.358,-42.485 34.984,-44.088 L 66.858,28.844 c 6,-15.5 19,-28.748 43.5,-28.748 160.97,-0.21406 6.8301,0.0039 167.25,0 24.5,0 37.5,13.248 43.5,28.748 l 31.874,81.397 c 12.626,1.603 35.007,16.292 35.007,44.088 l 0,103.56 -30.997,0 0,33.069 c 0,40.736 -58.238,40.257 -58.238,0 l 0,-33.069 -104.79,0 z" />
          <g
             style="fill:#ffffff"
             id="g181321"
             transform="translate(0,-33.974)">
            <path
               inkscape:connector-curvature="0"
               id="path181323"
               d="m 193.96,142.3 -125.98,0 23.998,-62.98 c 3,-9 7.502,-15.5 18.002,-15.597 l 168,0 c 10.5,0.097 15,6.597 18,15.597 l 23.998,62.98 -126.02,0 z" />
            <g
               id="g181325">
              <g
                 id="g181327">
                <path
                   inkscape:connector-curvature="0"
                   id="path181329"
                   d="m 61.043,228.55 c -14.856,0 -26.901,-12.291 -26.901,-27.45 0,-15.159 12.045,-27.449 26.901,-27.449 14.856,0 26.9,12.29 26.9,27.449 0,15.159 -12.044,27.45 -26.9,27.45 z" />
              </g>
              <g
                 id="g181331">
                <path
                   inkscape:connector-curvature="0"
                   id="path181333"
                   d="m 326.93,228.55 c 14.856,0 26.9,-12.291 26.9,-27.45 0,-15.159 -12.044,-27.449 -26.9,-27.449 -14.856,0 -26.901,12.29 -26.901,27.449 0,15.159 12.045,27.45 26.901,27.45 z" />
              </g>
            </g>
          </g>
        </g>
        <g
           id="g181335"
           transform="matrix(0.26534072,0,0,0.28915774,93.667641,432.61649)">
          <path
             style="fill:#a65d5c;fill-opacity:1;stroke:#000000;stroke-width:7.22038984;stroke-miterlimit:4;stroke-dasharray:none;stroke-opacity:1"
             d="m 194.03,257.89 -104.79,0 0,33.069 c 0,40.257 -58.238,40.736 -58.238,0 l 0,-33.069 -30.997,0 0,-103.56 c 0,-27.796 22.358,-42.485 34.984,-44.088 L 66.858,28.844 c 6,-15.5 19,-28.748 43.5,-28.748 160.97,-0.21406 6.8301,0.0039 167.25,0 24.5,0 37.5,13.248 43.5,28.748 l 31.874,81.397 c 12.626,1.603 35.007,16.292 35.007,44.088 l 0,103.56 -30.997,0 0,33.069 c 0,40.736 -58.238,40.257 -58.238,0 l 0,-33.069 -104.79,0 z"
             id="path181337"
             inkscape:connector-curvature="0" />
          <g
             transform="translate(0,-33.974)"
             id="g181339"
             style="fill:#ffffff">
            <path
               d="m 193.96,142.3 -125.98,0 23.998,-62.98 c 3,-9 7.502,-15.5 18.002,-15.597 l 168,0 c 10.5,0.097 15,6.597 18,15.597 l 23.998,62.98 -126.02,0 z"
               id="path181341"
               inkscape:connector-curvature="0" />
            <g
               id="g181343">
              <g
                 id="g181345">
                <path
                   d="m 61.043,228.55 c -14.856,0 -26.901,-12.291 -26.901,-27.45 0,-15.159 12.045,-27.449 26.901,-27.449 14.856,0 26.9,12.29 26.9,27.449 0,15.159 -12.044,27.45 -26.9,27.45 z"
                   id="path181347"
                   inkscape:connector-curvature="0" />
              </g>
              <g
                 id="g181349">
                <path
                   d="m 326.93,228.55 c 14.856,0 26.9,-12.291 26.9,-27.45 0,-15.159 -12.044,-27.449 -26.9,-27.449 -14.856,0 -26.901,12.29 -26.901,27.449 0,15.159 12.045,27.45 26.901,27.45 z"
                   id="path181351"
                   inkscape:connector-curvature="0" />
              </g>
            </g>
          </g>
        </g>
      </g>
    </g>
  </g>
  <metadata
     id="metadata180597">
    <rdf:RDF>
      <cc:Work>
        <dc:format>image/svg+xml</dc:format>
        <dc:type
           rdf:resource="http://purl.org/dc/dcmitype/StillImage" />
        <cc:license
           rdf:resource="http://creativecommons.org/publicdomain/zero/1.0/" />
        <dc:publisher>
          <cc:Agent
             rdf:about="http://openclipart.org/">
            <dc:title>Openclipart</dc:title>
          </cc:Agent>
        </dc:publisher>
        <dc:title>Open road</dc:title>
        <dc:date>2012-07-10T23:07:56</dc:date>
        <dc:description>A straight road going into the horizon, drawn in Inkscape.</dc:description>
        <dc:source>https://openclipart.org/detail/171119/open-road-by-j_alves-171119</dc:source>
        <dc:creator>
          <cc:Agent>
            <dc:title>J_Alves</dc:title>
          </cc:Agent>
        </dc:creator>
        <dc:subject>
          <rdf:Bag>
            <rdf:li>highway</rdf:li>
            <rdf:li>openstreetmap</rdf:li>
            <rdf:li>road</rdf:li>
            <rdf:li>straight</rdf:li>
          </rdf:Bag>
        </dc:subject>
      </cc:Work>
      <cc:License
         rdf:about="http://creativecommons.org/publicdomain/zero/1.0/">
        <cc:permits
           rdf:resource="http://creativecommons.org/ns#Reproduction" />
        <cc:permits
           rdf:resource="http://creativecommons.org/ns#Distribution" />
        <cc:permits
           rdf:resource="http://creativecommons.org/ns#DerivativeWorks" />
      </cc:License>
    </rdf:RDF>
  </metadata>
</svg>
